# xmcd
#
# Track frame offsets: 
#        150
#        20652
#        40885
#        62442
#        83398
#        109562
#        127877
#        146963
#        168994
#        189268
#        207179
#        228923
#        249675
#        273213
#        295306
#
# Disc length: 4219 seconds
#
# Revision: 0
# Processed by: cddbd v1.5.2PL0 Copyright (c) Steve Scherf et al.
# Submitted via: ExactAudioCopy v1.1
#
DISCID=c810790f
DTITLE=nowisee - reALIVE
DYEAR=2017
DGENRE=Vocal
TTITLE0=明日地球が滅ぶなら
TTITLE1=ライフライン
TTITLE2=EDGE
TTITLE3=ヒューマノイド
TTITLE4=不染汚
TTITLE5=ダブルバインド
TTITLE6=microser
TTITLE7=王国廃退～It's high time～
TTITLE8=Ego-Rhythm
TTITLE9=single track
TTITLE10=アナグラムのコラム
TTITLE11=re
TTITLE12=ALIVE
TTITLE13=Unfair
TTITLE14=すみれ色の空
EXTD=
EXTT0=
EXTT1=
EXTT2=
EXTT3=
EXTT4=
EXTT5=
EXTT6=
EXTT7=
EXTT8=
EXTT9=
EXTT10=
EXTT11=
EXTT12=
EXTT13=
EXTT14=
PLAYORDER=
